<svg xmlns="http://www.w3.org/2000/svg" viewBox="0 0 120 80">
  <g fill="none" fill-rule="evenodd">
    <rect stroke="#000" stroke-width="2.5" fill="#FFF" x="1.25" y="1.25" width="117.5" height="77.5" rx="4"/>
    <g fill="#000" fill-rule="nonzero">
      <path d="M31.9940241 26.91761226c1.0143614-1.27485849 1.7026988-2.9867283 1.5211807-4.73600849-1.4848915.07423963-3.2968193.9843651-4.3458795 2.26031321-.9419277 1.09260094-1.7756386 2.87609528-1.5583373 4.55208019 1.6668433.14528302 3.3321686-.8371934 4.3830361-2.07638491M33.4962651 29.32124717c-2.4206747-.14491981-4.478747 1.38047925-5.6347952 1.38047925-1.1565542 0-2.9267711-1.30747453-4.84134942-1.2722434-2.49195181.0367566-4.80419277 1.45261226-6.06881928 3.70442638-2.60096385 4.5048632-.68638554 11.1870831 1.84293976 14.8559878 1.22833735 1.815166 2.70860241 3.8137519 4.65918073 3.7419094 1.84293971-.0726415 2.56525301-1.1990934 4.80542171-1.1990934 2.238506 0 2.8891807 1.1990934 4.8400482 1.1627726 2.0230843-.0363207 3.2878554-1.8160377 4.5161927-3.6328745 1.4090603-2.0691934 1.9858555-4.0671255 2.0221446-4.1768141-.0362891-.0363208-3.901012-1.5261981-3.9368675-5.9935783-.036506-3.7406019 3.0342651-5.5198104 3.1787711-5.6301529-1.7340723-2.57724808-4.4435421-2.86781411-5.3828674-2.94081883"/>
      <g>
        <path d="M57.631229 24.25929594c5.2612048 0 8.9251084 3.64427925 8.9251084 8.95008774 0 5.32476792-3.7389397 8.98815192-9.0566747 8.98815192h-5.82520478v9.3084283h-4.20903615V24.25929594H57.631229zM51.67445792 38.6473997h4.82920481c3.66426507 0 5.74973497-1.9823868 5.74973497-5.41905659 0-3.4363066-2.0854699-5.40016981-5.73093978-5.40016981h-4.848v10.8192264zM67.6005543 45.8607016c0-3.4934755 2.6494699-5.494967 7.5347711-5.7968651l5.2424096-.3212934v-1.5103623c0-2.2092462-1.4468674-3.4177103-4.0209397-3.4177103-2.1235663 0-3.6643374 1.0951434-3.9836386 2.775632h-3.7958313c.1130602-3.53103108 3.42-6.09869052 7.8921687-6.09869052 4.8103373 0 7.9483373 2.53017642 7.9483373 6.45739432v13.5571576h-3.8897349V48.239711h-.0938314c-1.1086988 2.1335538-3.5515662 3.4738623-6.2010361 3.4738623-3.908241 0-6.6326747-2.3411632-6.6326747-5.8528717zm12.7771807-1.7561811v-1.5296849l-4.6787711.3022613c-2.6306024.1697632-4.0020722 1.1516585-4.0020722 2.8699934 0 1.6615292 1.428 2.738149 3.6639036 2.738149 2.856 0 5.0169397-1.8320188 5.0169397-4.3807188zM87.9936868 58.7945224v-3.2662529c.2631326.0371925.9018073.0750387 1.2399036.0750387 1.8604338 0 2.9126025-.7925189 3.5516386-2.8320745l.3758313-1.2084642-7.1216385-19.82590186h4.3967711l4.960771 16.08697076h.0938314l4.960771-16.08697076h4.2844338L97.351229 52.5636242c-1.6911325 4.7769783-3.6266024 6.3445095-7.7229398 6.3445095-.3193012 0-1.3529638-.0378462-1.6346024-.1136113z"/>
      </g>
    </g>
  </g>
</svg>